<svg width="84" height="25" viewBox="0 0 84 25" fill="none" xmlns="http://www.w3.org/2000/svg">
<path d="M31.6964 6.04972C33.5408 6.33796 35.2041 6.77703 35.2041 8.46626C35.2041 10.1555 33.3597 10.7923 31.5656 10.7923C30.3818 10.7923 28.8828 10.3767 28.3295 9.47846C28.2753 9.3767 28.2482 9.26269 28.251 9.14744C28.2537 9.03218 28.2861 8.91959 28.3451 8.82052C28.4041 8.72146 28.4877 8.63927 28.5878 8.58191C28.6878 8.52455 28.801 8.49396 28.9163 8.49307H30.033C30.033 9.80357 30.8915 10.2326 31.579 10.2326C32.2665 10.2326 33.1786 9.80357 33.1786 8.49307C33.1786 7.93335 32.4107 7.73895 31.4482 7.59483C29.5904 7.30994 28.0947 6.75356 28.0947 5.24867C28.0947 3.66334 30.1068 3.03993 31.5253 2.98965C32.5783 2.98965 34.2551 3.42872 34.7749 4.58504C34.8086 4.68496 34.8184 4.79143 34.8032 4.89581C34.7881 5.00018 34.7485 5.09951 34.6877 5.18573C34.627 5.27195 34.5467 5.34261 34.4534 5.39199C34.3602 5.44136 34.2566 5.46805 34.1511 5.46988H32.9707C32.9707 3.98845 32.0585 3.54603 31.5522 3.54603C30.9687 3.54603 30.1102 3.98845 30.1102 5.22186C30.1102 5.76818 30.9821 5.96257 31.6829 6.06647L31.6964 6.04972Z" fill="white"/>
<path d="M41.6832 10.5979C42.0456 10.0106 42.2177 9.3259 42.1762 8.63719V6.79043C42.1762 4.85652 41.9683 3.54267 40.7208 3.54267C39.1346 3.54267 38.6416 4.85652 38.6416 6.79043V8.63719C38.6259 9.19288 38.7276 9.74563 38.9401 10.2594V10.2862C39.0003 10.4033 39.0698 10.5154 39.148 10.6214L39.1748 10.6448H36.0527L36.1064 10.5812C36.4687 9.99387 36.6409 9.30914 36.5994 8.62043V2.36289C36.5994 0.945141 36.0527 0.351898 36.0527 0.351898H36.9783C37.1968 0.350568 37.4134 0.392547 37.6156 0.475411C37.8178 0.558274 38.0015 0.680376 38.1562 0.834656C38.3109 0.988936 38.4334 1.17233 38.5168 1.37424C38.6001 1.57615 38.6425 1.79256 38.6416 2.01097V4.14262C39.0943 3.4924 39.6275 2.9863 40.7074 2.9863C43.3465 2.9863 44.1916 4.73922 44.1916 6.89433V8.63719C44.1759 9.19288 44.2776 9.74563 44.4901 10.2594V10.2862C44.5503 10.4033 44.6199 10.5154 44.698 10.6214L44.7215 10.6482H41.6027L41.6564 10.5812L41.6832 10.5979Z" fill="white"/>
<path d="M53.7085 8.79136C53.6866 9.44144 53.8787 10.0808 54.2552 10.6113H52.8635C52.3168 10.6113 51.6931 10.1689 51.6931 9.62257C51.227 10.2728 50.6871 10.7789 49.6139 10.7789C46.9781 10.7789 45.5093 9.02598 45.5093 6.86751C45.5093 4.70905 46.9781 2.95948 49.6139 2.95948C50.0606 2.95633 50.5047 3.02653 50.9285 3.16729C51.4605 3.39195 52.0335 3.50323 52.6109 3.49399C53.1883 3.48476 53.7575 3.35522 54.282 3.11366C53.8906 3.70891 53.6991 4.4133 53.7354 5.12465L53.7085 8.79136ZM49.6005 10.1823C51.1867 10.1823 51.6797 8.10427 51.6797 6.85411C51.6797 4.93361 51.1867 3.51921 49.6005 3.51921C48.353 3.51921 47.5214 4.93361 47.5214 6.87087C47.5214 8.80812 48.353 10.2225 49.6005 10.2225V10.1823Z" fill="white"/>
<path d="M63.4101 8.59698C63.4101 10.0114 63.9567 10.608 63.9567 10.608H63.2156C62.8477 10.6104 62.487 10.5059 62.1774 10.3071C61.8678 10.1084 61.6226 9.82397 61.4718 9.48851C61.159 9.89462 60.755 10.2215 60.2925 10.4427C59.8299 10.664 59.3218 10.7734 58.8092 10.7621C56.5355 10.7621 55.2075 9.00923 55.2075 6.85076C55.2075 4.6923 56.3779 2.94608 58.8226 2.94608C59.3105 2.93427 59.7949 3.03203 60.2401 3.23215C60.6852 3.43227 61.0798 3.72966 61.3947 4.1024V2.34614C61.3947 0.928387 60.8481 0.335144 60.8481 0.335144H61.5758C62.4879 0.335144 63.4101 1.07586 63.4101 1.98416V8.59698ZM59.3021 10.1823C60.8749 10.1823 61.3813 8.10428 61.3813 6.85411C61.3813 4.93362 60.8883 3.51922 59.3021 3.51922C58.0546 3.51922 57.2364 4.93362 57.2364 6.87087C57.2364 8.80813 58.0546 10.2225 59.3021 10.2225V10.1823Z" fill="white"/>
<path d="M73.1119 3.10361C72.4489 3.76701 71.9115 4.54484 71.5257 5.39949L68.5075 12.1296C68.3675 12.5184 68.1119 12.8551 67.7751 13.0947C67.4383 13.3343 67.0363 13.4653 66.6229 13.4703C66.1435 13.4613 65.6809 13.2926 65.3083 12.991C65.0116 12.6939 64.84 12.2945 64.8288 11.8749C64.827 11.7628 64.8475 11.6516 64.8892 11.5476C64.9309 11.4435 64.9928 11.3488 65.0715 11.269C65.1501 11.1891 65.2439 11.1257 65.3473 11.0824C65.4507 11.0391 65.5617 11.0169 65.6738 11.0169H66.8442C66.2976 11.5498 66.2339 12.8871 66.7134 12.8871C67.5048 12.8871 68.0246 11.6905 68.0246 11.6905C68.2862 11.1208 68.0917 10.2762 67.8301 9.70302L65.9656 5.53021C65.5592 4.63583 65.0061 3.81565 64.3291 3.10361H67.6423C67.6155 3.25745 67.602 3.41332 67.6021 3.56949C67.5993 4.03204 67.6978 4.4896 67.8905 4.91015L69.4868 8.49642L71.1635 4.74257C71.3963 4.23423 71.4643 3.66588 71.358 3.11701L73.1119 3.10361Z" fill="white"/>
<path d="M32.7089 14.1808C34.5935 14.1808 35.0093 15.1562 35.0093 16.4801C35.0102 16.5884 34.9898 16.6958 34.9491 16.7961C34.9085 16.8965 34.8484 16.9879 34.7725 17.0651C34.6965 17.1423 34.606 17.2037 34.5063 17.246C34.4065 17.2882 34.2994 17.3104 34.1911 17.3113H32.9973C32.9973 17.3113 33.9832 14.764 32.7357 14.764C31.1495 14.764 30.6699 15.7394 30.6699 17.6632V19.8451C30.6538 20.4009 30.7556 20.9537 30.9684 21.4673V21.4942C31.0277 21.6118 31.0973 21.7239 31.1763 21.8293L31.1998 21.8561H28.0811L28.1347 21.7891C28.2789 21.5947 28.6277 20.9847 28.6277 19.8284V16.3594C28.6349 15.8462 28.5474 15.336 28.3695 14.8545C28.3031 14.679 28.2152 14.5124 28.1079 14.3585C29.2272 14.8338 30.489 14.8483 31.619 14.3987C31.9737 14.2561 32.3533 14.1855 32.7357 14.1909L32.7089 14.1808Z" fill="white"/>
<path d="M41.3444 21.8327C41.7067 21.2454 41.8789 20.5606 41.8374 19.8719V18.0252C41.8374 16.0913 41.6295 14.7774 40.382 14.7774C38.7958 14.7774 38.3028 16.0913 38.3028 18.0252V19.8719C38.2871 20.4276 38.3888 20.9804 38.6013 21.4941V21.5209C38.6615 21.638 38.731 21.7501 38.8092 21.8561L38.836 21.8796H35.7173L35.7676 21.8159C35.9118 21.6215 36.2605 21.0115 36.2605 19.8552V13.5976C36.2605 12.1799 35.7173 11.5866 35.7173 11.5866H36.6395C37.0768 11.5875 37.4959 11.7615 37.8052 12.0706C38.1144 12.3797 38.2885 12.7986 38.2894 13.2357V15.3673C38.7455 14.7171 39.2753 14.211 40.3551 14.211C42.9943 14.211 43.8394 15.9639 43.8394 18.1224V19.8619C43.8237 20.4176 43.9254 20.9703 44.1379 21.4841V21.5109C44.1981 21.628 44.2676 21.7401 44.3458 21.8461L44.3726 21.8729H41.2505L41.3042 21.8058L41.3444 21.8327Z" fill="white"/>
<path d="M52.696 14.3384C52.0322 15.0023 51.4948 15.7814 51.1098 16.6376L48.0917 23.3644C47.9537 23.7545 47.6987 24.0925 47.3614 24.3325C47.0242 24.5724 46.621 24.7025 46.2071 24.705C45.7277 24.696 45.2651 24.5274 44.8925 24.2258C44.5952 23.929 44.4235 23.5294 44.4129 23.1097C44.4112 22.9976 44.4317 22.8863 44.4734 22.7823C44.5151 22.6783 44.577 22.5836 44.6557 22.5037C44.7343 22.4239 44.8281 22.3605 44.9315 22.3172C45.0349 22.2739 45.1459 22.2516 45.258 22.2516H46.4284C45.8818 22.7845 45.8181 24.1219 46.2976 24.1219C47.089 24.1219 47.6088 22.9287 47.6088 22.9287C47.8704 22.3555 47.6759 21.5109 47.4143 20.9411L45.5598 16.7583C45.1535 15.8639 44.6004 15.0437 43.9233 14.3317H47.2366C47.2099 14.4855 47.1964 14.6414 47.1963 14.7975C47.1931 15.2601 47.2916 15.7178 47.4847 16.1382L49.081 19.7245L50.7577 15.9706C50.9905 15.4623 51.0585 14.8939 50.9522 14.3451L52.696 14.3384Z" fill="white"/>
<path d="M63.3566 21.8595C63.7208 21.2716 63.8942 20.5856 63.8529 19.8954V17.7269C63.8529 15.8064 63.5176 14.8311 62.696 14.8311C61.3546 14.8311 60.8482 15.726 60.8113 17.5459V19.8921C60.7954 20.4489 60.8971 21.0028 61.1098 21.5176V21.5444C61.1687 21.6623 61.2383 21.7745 61.3177 21.8796L61.3412 21.9064H58.2526L58.3063 21.8427C58.6686 21.2555 58.8408 20.5707 58.7992 19.882V17.69C58.7992 15.7662 58.4471 14.7908 57.6423 14.7908C56.264 14.7908 55.7442 15.7662 55.7442 17.69V19.872C55.7305 20.4275 55.8321 20.9798 56.0427 21.4942V21.521C56.1043 21.6373 56.1737 21.7493 56.2506 21.8561L56.2774 21.8796H53.1587L53.209 21.8159C53.3532 21.6215 53.7053 21.0115 53.7053 19.8552V16.3862C53.7117 15.8728 53.6231 15.3626 53.4437 14.8813C53.3772 14.7066 53.2905 14.5401 53.1855 14.3853C53.7074 14.6205 54.2722 14.7455 54.8446 14.7524C55.4171 14.7593 55.9848 14.648 56.5122 14.4255C56.93 14.2839 57.3688 14.2137 57.81 14.2177C58.2906 14.199 58.7661 14.3218 59.1775 14.5709C59.5888 14.8199 59.9179 15.1843 60.1239 15.6187C60.395 15.1914 60.7693 14.8391 61.2123 14.5943C61.6553 14.3495 62.1529 14.22 62.6591 14.2177C64.9328 14.2177 65.8952 15.9706 65.8952 18.1291V19.8686C65.8795 20.4243 65.9812 20.9771 66.1937 21.4908V21.5176C66.2539 21.6347 66.3234 21.7468 66.4016 21.8528L66.4284 21.8796H63.3097L63.36 21.8126L63.3566 21.8595Z" fill="white"/>
<path d="M72.0858 21.3132C74.061 21.3132 75.4124 19.4563 75.4124 19.4563C74.8792 20.8439 73.3065 22.0137 71.3883 22.0137C68.8128 22.0137 67.2031 20.2339 67.2031 18.0788C67.2031 15.9237 68.8128 14.1942 71.3883 14.1942C73.4272 14.1942 75.0268 15.2735 75.4795 17.0398C75.5263 17.2121 75.5323 17.393 75.4972 17.568C75.4622 17.7431 75.3869 17.9077 75.2773 18.0487C75.1677 18.1897 75.0269 18.3034 74.8658 18.3808C74.7048 18.4581 74.528 18.497 74.3494 18.4944H69.3426C69.6411 19.8954 70.4996 21.3132 72.0992 21.3132H72.0858ZM70.6941 14.8445C69.3527 15.2064 69.1347 16.651 69.2253 17.9112H73.0717C73.1376 17.9068 73.2019 17.8889 73.2605 17.8585C73.3191 17.8281 73.3708 17.7859 73.4124 17.7346C73.4539 17.6834 73.4844 17.624 73.502 17.5604C73.5195 17.4968 73.5238 17.4302 73.5144 17.3649C73.2796 15.8835 72.23 14.4289 70.7075 14.8445H70.6941Z" fill="white"/>
<path d="M80.0502 17.2845C81.898 17.5727 83.5613 18.0118 83.5613 19.701C83.5613 21.3902 81.7135 22.0271 79.9194 22.0271C78.739 22.0271 77.2366 21.6115 76.6833 20.7166C76.6242 20.6142 76.5931 20.4981 76.5934 20.3799C76.5937 20.2617 76.6252 20.1457 76.6848 20.0436C76.7444 19.9415 76.8299 19.857 76.9327 19.7986C77.0355 19.7402 77.1519 19.71 77.2701 19.7111H78.3734C78.3734 21.0216 79.2319 21.4506 79.9194 21.4506C80.6069 21.4506 81.519 21.0216 81.519 19.7111C81.519 19.1513 80.7511 18.9569 79.792 18.8162C77.9308 18.5279 76.4385 17.9716 76.4385 16.4499C76.4385 14.8679 78.4506 14.2412 79.8691 14.1909C80.9221 14.1909 82.5988 14.6333 83.1186 15.7896C83.1518 15.8893 83.161 15.9955 83.1455 16.0994C83.1301 16.2033 83.0904 16.3022 83.0297 16.388C82.969 16.4738 82.889 16.5441 82.7961 16.5933C82.7032 16.6424 82.6 16.6691 82.4949 16.6711H81.3111C81.3111 15.1897 80.4023 14.7473 79.8926 14.7473C79.3091 14.7473 78.4506 15.1897 78.4506 16.4231C78.4506 16.9694 79.3225 17.1638 80.0234 17.2677L80.0502 17.2845Z" fill="white"/>
<path d="M8.59407 14.1132L4.94041 17.7254L5.64173 18.4132L9.31802 14.7786C9.66028 14.9991 10.0457 15.1458 10.4492 15.2091V22.1428H11.4333V15.2091C11.8524 15.1381 12.2514 14.9799 12.6041 14.745L16.2181 18.3181L16.9194 17.6303L13.311 14.0628C13.5832 13.6975 13.7652 13.2743 13.8427 12.8271H20.6806V11.8541H13.8257C13.7616 11.4552 13.6132 11.0742 13.3902 10.7358L16.7837 7.38079L16.088 6.69301L12.6945 10.048C12.3148 9.75749 11.8676 9.56528 11.3937 9.48885V2.85712H10.4322V9.47208C9.97985 9.54866 9.55183 9.72865 9.18228 9.9977L5.73788 6.59236L5.03655 7.27455L8.49227 10.6911C8.25232 11.0384 8.09209 11.4335 8.02283 11.8485H1.16797V12.8215H8.02283C8.1009 13.2925 8.29732 13.7367 8.59407 14.1132ZM10.9243 10.4003C11.3117 10.4036 11.6895 10.5202 12.01 10.7354C12.3305 10.9506 12.5794 11.2548 12.7253 11.6096C12.8713 11.9645 12.9077 12.3541 12.8301 12.7293C12.7524 13.1046 12.5642 13.4488 12.2891 13.7184C12.0139 13.9881 11.6642 14.1713 11.284 14.2448C10.9038 14.3183 10.51 14.2789 10.1524 14.1316C9.79477 13.9842 9.48925 13.7355 9.27434 13.4168C9.05943 13.0981 8.94475 12.7237 8.94473 12.3406C8.94472 12.0844 8.99604 11.8307 9.09573 11.5942C9.19542 11.3577 9.3415 11.143 9.52554 10.9626C9.70959 10.7822 9.92794 10.6397 10.168 10.5432C10.4081 10.4466 10.6651 10.3981 10.9243 10.4003Z" fill="#FADCD9" stroke="#FADCD9" stroke-miterlimit="10"/>
</svg>
